<svg id="Capa_1" fill="#73cca8" enable-background="new 0 0 508.568 508.568" width="40" height="40" viewBox="0 0 508.568 508.568" xmlns="http://www.w3.org/2000/svg"><g><path d="m254.283 209.276c-24.813 0-45 20.187-45 45 2.472 59.699 87.537 59.681 90 0 0-24.813-20.186-45-45-45zm0 60c-8.271 0-15-6.729-15-15 .824-19.9 29.179-19.894 30 0 0 8.271-6.728 15-15 15z"/><path d="m350.286 150.558-38.435 15.601c-3.239-2.119-6.591-4.057-10.042-5.805l-5.705-41.078h-83.643l-5.705 41.078c-3.451 1.749-6.803 3.686-10.042 5.805l-38.435-15.601-41.82 72.437 32.735 25.491c-.213 3.874-.213 7.708 0 11.582l-32.735 25.491 41.82 72.437 38.435-15.601c3.239 2.119 6.591 4.057 10.042 5.805l5.705 41.078h83.643l5.705-41.078c3.451-1.749 6.803-3.686 10.042-5.805l38.435 15.601 41.82-72.437-32.735-25.491c.213-3.874.213-7.708 0-11.582l32.735-25.491zm-21.486 93.223c1.559 9.641.318 19.973-1.196 29.572l25.462 19.827-15.699 27.192-29.921-12.145c-7.547 6.128-15.855 12.376-24.982 15.84 0 0-8.042 3.252-8.042 3.252l-4.438 31.958h-31.4l-4.438-31.958-8.042-3.251c-9.106-3.451-17.455-9.726-24.981-15.84l-29.923 12.144-15.699-27.192 25.462-19.827c-.799-5.814-2.04-13.275-1.928-19.077-.114-5.781 1.131-13.293 1.928-19.077l-25.462-19.827 15.699-27.192 29.921 12.145c7.547-6.128 15.855-12.376 24.982-15.84 0 0 8.042-3.252 8.042-3.252l4.438-31.958h31.4l4.438 31.958 8.042 3.251c9.106 3.451 17.455 9.726 24.981 15.84l29.921-12.145 15.699 27.192-25.462 19.827z"/><path d="m481.305 254.275c1.589-105.134-78.132-202.736-181.186-222.389l-6.027 29.389c215.859 49.889 205.268 352.052-11.816 388.024l6.735-11.003-25.588-15.662-27.392 44.749 32.503 41.187 23.551-18.585-8.35-10.58c109.957-12.256 199.739-114.039 197.57-225.13z"/><path d="m102.22 379.56c-98.173-117.423-25.544-300.203 124.119-320.315l-6.747 11.052 25.605 15.631 27.336-44.782-32.552-41.146-23.527 18.613 8.338 10.539c-109.94 12.282-199.698 114.04-197.528 225.125-1.59 105.128 78.131 202.738 181.184 222.388l6.027-29.389c-43.774-8.978-83.64-33.026-112.255-67.716z"/></g></svg>