<svg viewBox="0 -27 512.00136 512" width="40" height="40" xmlns="http://www.w3.org/2000/svg"><path d="m470.515625 274.664062c-8.285156 0-15-6.714843-15-15v-30.148437c0-110.011719-89.503906-199.515625-199.515625-199.515625-32.195312 0-64.179688 7.84375-92.488281 22.683594-27.417969 14.375-51.488281 35.285156-69.605469 60.480468-4.835938 6.726563-14.210938 8.257813-20.9375 3.417969-6.726562-4.835937-8.257812-14.207031-3.417969-20.933593 20.828125-28.960938 48.503907-53.007813 80.03125-69.535157 32.589844-17.082031 69.390625-26.113281 106.417969-26.113281 61.304688 0 118.941406 23.875 162.289062 67.222656 43.351563 43.351563 67.226563 100.988282 67.226563 162.292969v30.148437c0 8.285157-6.71875 15-15 15zm0 0" fill="#73cca8"/><path d="m256 0c-.007812 0-.015625 0-.019531 0v30h.019531c110.011719 0 199.515625 89.503906 199.515625 199.515625v30.148437c0 8.285157 6.714844 15 15 15 8.28125 0 15-6.714843 15-15v-30.148437c0-61.304687-23.875-118.941406-67.226563-162.292969-43.347656-43.347656-100.984374-67.222656-162.289062-67.222656zm0 0" fill="#73cca8"/><path d="m470.515625 294.664062c-4.300781 0-8.394531-1.84375-11.242187-5.066406l-26.488282-29.984375c-5.480468-6.207031-4.894531-15.6875 1.3125-21.171875 6.210938-5.484375 15.6875-4.898437 21.175782 1.3125l15.242187 17.253906 15.242187-17.253906c5.484376-6.210937 14.964844-6.796875 21.175782-1.3125 6.207031 5.484375 6.792968 14.964844 1.308594 21.171875l-26.484376 29.984375c-2.847656 3.222656-6.941406 5.066406-11.242187 5.066406zm0 0" fill="#73cca8"/><path d="m256 458.972656c-61.304688 0-118.941406-23.875-162.289062-67.222656-43.351563-43.347656-67.222657-100.984375-67.222657-162.292969v-30.148437c0-8.285156 6.714844-15 15-15 8.28125 0 15 6.714844 15 15v30.148437c0 110.015625 89.5 199.515625 199.511719 199.515625 32.199219 0 64.179688-7.84375 92.488281-22.683594 27.421875-14.375 51.488281-35.285156 69.609375-60.480468 4.835938-6.722656 14.210938-8.253906 20.933594-3.417969 6.726562 4.835937 8.257812 14.210937 3.421875 20.933594-20.828125 28.960937-48.503906 53.007812-80.035156 69.535156-32.589844 17.082031-69.386719 26.113281-106.417969 26.113281zm0 0" fill="#73cca8"/><path d="m439.03125 342.390625c-6.722656-4.835937-16.097656-3.304687-20.933594 3.417969-18.121094 25.195312-42.191406 46.109375-69.609375 60.480468-28.308593 14.839844-60.289062 22.683594-92.488281 22.683594-.003906 0-.011719 0-.019531 0v30h.019531c37.03125 0 73.828125-9.03125 106.417969-26.113281 31.53125-16.527344 59.207031-40.570313 80.035156-69.535156 4.835937-6.722657 3.304687-16.097657-3.421875-20.933594zm0 0" fill="#73cca8"/><path d="m14.996094 224.292969c-3.53125 0-7.074219-1.238281-9.925782-3.757813-6.210937-5.484375-6.796874-14.964844-1.3125-21.175781l26.484376-29.984375c2.847656-3.222656 6.941406-5.066406 11.242187-5.066406s8.394531 1.84375 11.242187 5.066406l26.484376 29.984375c5.484374 6.210937 4.898437 15.6875-1.308594 21.175781-6.210938 5.484375-15.691406 4.894532-21.175782-1.3125l-15.242187-17.257812-15.242187 17.257812c-2.964844 3.355469-7.09375 5.070313-11.246094 5.070313zm0 0" fill="#73cca8" /><path d="m396.964844 258.78125-22.105469-12.761719c.757813-5.476562 1.140625-11.015625 1.140625-16.5625 0-5.605469-.390625-11.207031-1.164062-16.746093l22.128906-12.777344c3.445312-1.988282 5.960937-5.265625 6.988281-9.105469 1.03125-3.84375.492187-7.9375-1.5-11.382813l-30-51.960937c-4.140625-7.175781-13.3125-9.632813-20.488281-5.492187l-22.203125 12.820312c-8.773438-6.832031-18.484375-12.441406-28.761719-16.609375v-25.632813c0-8.285156-6.714844-15-15-15h-60c-8.28125 0-15 6.714844-15 15v25.632813c-10.273438 4.167969-19.988281 9.777344-28.757812 16.609375l-22.203126-12.820312c-7.175781-4.144532-16.351562-1.683594-20.492187 5.492187l-30 51.960937c-1.988281 3.445313-2.527344 7.539063-1.5 11.382813 1.03125 3.839844 3.546875 7.117187 6.992187 9.105469l22.128907 12.777344c-.773438 5.539062-1.167969 11.140624-1.167969 16.746093 0 5.546875.382812 11.085938 1.140625 16.5625l-22.101563 12.761719c-3.445312 1.988281-5.960937 5.265625-6.988281 9.109375-1.03125 3.84375-.492187 7.9375 1.496094 11.382813l30 51.960937c1.992187 3.445313 5.269531 5.957031 9.109375 6.988281 3.84375 1.03125 7.9375.492188 11.382812-1.5l22.054688-12.734375c8.8125 6.882813 18.574219 12.53125 28.910156 16.726563v25.433594c0 8.285156 6.714844 15 15 15h60c8.28125 0 15-6.714844 15-15v-25.433594c10.332032-4.191406 20.09375-9.839844 28.90625-16.726563l22.054688 12.734375c3.445312 1.992188 7.542968 2.527344 11.382812 1.5 3.84375-1.027344 7.121094-3.542968 9.109375-6.988281l30-51.960937c1.988281-3.445313 2.527344-7.542969 1.496094-11.382813-1.03125-3.84375-3.542969-7.121094-6.988281-9.109375zm-140.964844 15.675781c-24.851562 0-45-20.144531-45-45 0-24.851562 20.148438-45 45-45s45 20.148438 45 45c0 24.855469-20.148438 45-45 45zm0 0" fill="#b0ac9b"/><path d="m403.953125 190.828125c1.027344-3.84375.488281-7.9375-1.5-11.382813l-30-51.960937c-4.140625-7.175781-13.316406-9.632813-20.488281-5.488281l-22.203125 12.816406c-8.773438-6.828125-18.484375-12.441406-28.761719-16.609375v-25.632813c0-8.285156-6.714844-15-15-15h-30.019531v106.890626c.007812 0 .015625-.003907.019531-.003907 24.855469 0 45 20.148438 45 45 0 24.855469-20.144531 45-45 45-.003906 0-.011719 0-.019531 0v106.691407h30.019531c8.285156 0 15-6.714844 15-15v-25.433594c10.335938-4.191406 20.097656-9.839844 28.90625-16.726563l22.058594 12.734375c3.441406 1.992188 7.539062 2.527344 11.382812 1.5 3.839844-1.027344 7.117188-3.542968 9.105469-6.988281l30-51.960937c1.988281-3.445313 2.527344-7.542969 1.5-11.382813-1.03125-3.84375-3.542969-7.121094-6.988281-9.109375l-22.105469-12.761719c.757813-5.476562 1.140625-11.015625 1.140625-16.5625 0-5.605469-.390625-11.207031-1.164062-16.746093l22.128906-12.777344c3.445312-1.988282 5.957031-5.265625 6.988281-9.105469zm0 0" fill="#b0ac9b"/></svg>