<?xml version="1.0" standalone="no"?>
<!DOCTYPE svg PUBLIC "-//W3C//DTD SVG 20010904//EN"
 "http://www.w3.org/TR/2001/REC-SVG-20010904/DTD/svg10.dtd">
<svg version="1.0" xmlns="http://www.w3.org/2000/svg"
 width="2000.000000pt" height="1333.000000pt" viewBox="0 0 2000.000000 1333.000000"
 preserveAspectRatio="xMidYMid meet">

<g transform="translate(0.000000,1333.000000) scale(0.100000,-0.100000)"
fill="#73CCA8" stroke="none">
<path d="M11305 11623 c-722 -65 -1346 -279 -1406 -482 -12 -40 -11 -50 15
-126 61 -180 191 -355 313 -424 13 -7 13 -11 0 -37 -8 -16 -34 -95 -58 -174
-45 -153 -46 -162 -41 -395 3 -115 -12 -189 -48 -250 -46 -77 -110 -215 -116
-252 -10 -63 15 -104 87 -143 33 -17 64 -41 68 -52 4 -11 3 -44 -3 -74 -9 -53
-8 -56 23 -101 27 -37 31 -50 22 -62 -57 -78 -63 -104 -32 -142 18 -22 18 -24
0 -63 -43 -94 -14 -204 64 -250 111 -66 429 -96 636 -62 57 10 104 16 105 14
24 -40 141 -185 208 -261 48 -54 122 -143 163 -197 90 -119 127 -150 180 -150
66 0 130 57 548 485 209 214 343 360 381 415 82 117 152 189 211 216 58 28 75
30 75 9 0 -8 -26 -27 -57 -42 -78 -38 -162 -125 -385 -399 -103 -126 -224
-269 -270 -318 -167 -180 -413 -368 -497 -381 -94 -15 -136 -38 -177 -100 -7
-11 -18 -65 -25 -119 -19 -159 16 -593 86 -1096 14 -96 25 -182 25 -190 0 -9
-113 -85 -275 -184 -332 -205 -405 -258 -405 -292 0 -34 21 -39 83 -19 66 21
384 180 545 273 67 38 124 67 126 63 16 -26 76 -610 76 -742 l0 -88 -79 -25
c-112 -36 -432 -95 -846 -156 -77 -12 -148 -23 -157 -26 -16 -5 -18 2 -18 58
0 171 -85 318 -230 397 l-55 30 56 25 c31 13 114 45 185 71 288 103 304 111
304 149 0 37 -69 164 -114 211 l-41 43 -430 7 c-236 4 -1142 5 -2012 3 -871
-3 -1583 -4 -1583 -1 0 2 14 25 32 50 l31 46 -2 176 c-3 298 -63 2611 -76
2931 -2 69 -10 303 -16 520 -7 250 -15 404 -23 420 -15 34 -107 78 -299 145
-317 110 -995 306 -1061 307 -56 1 -100 -26 -122 -74 -16 -35 -17 -84 -11
-640 3 -332 13 -999 23 -1483 l17 -881 -26 -64 c-57 -142 -339 -1090 -601
-2020 -167 -592 -190 -683 -189 -745 2 -106 66 -235 140 -277 48 -29 182 -40
488 -41 297 -2 335 3 335 42 0 34 -46 48 -255 75 -293 39 -426 73 -465 121
-31 37 16 351 132 875 l23 105 7 -205 c7 -228 21 -303 67 -360 54 -67 178
-109 352 -117 125 -7 159 -1 159 27 0 15 -35 37 -162 99 -169 83 -252 138
-277 183 -14 24 -13 36 8 129 23 105 103 386 211 749 85 286 109 387 118 488
7 81 9 64 35 -263 15 -192 52 -683 82 -1090 30 -407 58 -765 62 -795 8 -54 9
-56 57 -79 30 -15 68 -25 95 -25 l46 -1 100 141 c55 78 146 209 203 292 65 95
111 152 125 156 36 11 707 30 768 22 73 -9 103 -35 94 -79 -13 -63 -108 -304
-157 -400 -27 -53 -61 -106 -74 -116 -64 -50 -361 -67 -847 -49 -188 6 -664
13 -1057 13 -755 2 -836 6 -1100 51 -178 30 -321 67 -557 145 -255 83 -347
102 -518 102 -159 1 -251 -18 -358 -76 -71 -37 -160 -124 -204 -198 -46 -79
-49 -96 -18 -101 22 -5 28 1 50 49 14 32 50 80 88 117 110 111 241 159 432
159 153 0 260 -22 511 -103 251 -81 408 -121 584 -150 264 -42 304 -44 995
-45 372 0 858 -6 1092 -14 452 -16 747 -8 862 23 89 24 128 75 219 281 52 119
112 299 112 337 0 38 -44 82 -96 97 -77 21 -804 5 -856 -20 -23 -11 -62 -64
-281 -385 -64 -94 -125 -178 -135 -187 -14 -13 -25 -15 -53 -7 -19 5 -43 15
-52 22 -18 14 -15 -20 -77 813 -81 1081 -132 1700 -165 2006 -8 74 -17 232
-20 350 -11 411 -35 1788 -42 2350 l-6 567 26 26 c18 18 37 26 61 26 91 0
1094 -307 1263 -387 l52 -25 5 -61 c3 -34 10 -222 16 -417 6 -195 13 -425 15
-510 6 -186 30 -1016 50 -1775 8 -302 17 -710 21 -905 l6 -355 -42 -57 c-36
-50 -46 -58 -75 -58 -39 0 -20 24 -461 -575 -383 -521 -464 -629 -474 -633
-10 -4 -20 115 -20 258 l0 125 67 85 c38 47 190 238 338 425 332 417 590 747
607 777 10 18 12 102 10 373 -2 356 -24 1383 -42 2000 -5 187 -14 511 -21 720
-12 436 -2 399 -117 434 -245 74 -1089 265 -1142 259 -24 -3 -25 -5 -28 -93
-9 -240 101 -3304 189 -5260 14 -314 24 -434 37 -447 21 -21 59 19 205 214
211 283 890 1240 904 1274 5 14 2852 27 3576 16 l489 -7 24 -30 c14 -16 40
-61 60 -99 26 -53 31 -72 22 -77 -7 -4 -91 -34 -185 -68 -308 -110 -382 -147
-368 -182 3 -8 42 -34 86 -58 86 -48 145 -105 178 -175 22 -45 41 -129 41
-180 l0 -31 -21 32 c-11 18 -36 76 -55 128 -44 123 -56 147 -95 179 -76 64
-260 137 -453 181 -169 37 -298 36 -474 -4 -364 -84 -471 -242 -396 -581 18
-80 37 -110 69 -110 33 0 59 37 90 130 15 44 35 90 45 102 16 20 15 14 -5 -45
-27 -74 -32 -107 -21 -153 7 -30 6 -31 -34 -37 -31 -4 -67 -25 -153 -91 -131
-100 -161 -126 -176 -155 -14 -25 1 -61 25 -61 14 0 14 -2 0 -16 -29 -28 -18
-68 25 -89 15 -8 54 -15 86 -16 55 -1 56 -1 23 -10 -72 -20 -93 -88 -42 -138
15 -15 34 -30 42 -33 8 -3 13 -7 10 -9 -9 -8 -385 6 -397 14 -25 16 -7 541 23
705 8 40 11 42 187 82 138 32 171 50 143 78 -29 29 -382 45 -404 19 -6 -7 -16
-33 -21 -58 -28 -122 -71 -608 -71 -791 0 -115 3 -120 115 -139 96 -17 715
-16 960 2 242 17 257 16 444 -25 208 -46 265 -56 326 -56 60 0 85 19 85 65 l0
28 21 -27 c32 -41 52 -47 177 -56 87 -6 143 -16 217 -40 280 -90 810 -303
1810 -730 363 -154 460 -191 623 -236 653 -179 1115 -65 1307 321 80 162 117
362 136 751 25 498 -44 1418 -157 2068 -8 48 -13 90 -11 92 12 12 235 -587
332 -891 l57 -180 -11 -92 c-15 -128 -14 -257 6 -552 14 -219 15 -278 4 -430
-30 -435 -93 -673 -235 -885 -163 -244 -443 -425 -731 -471 -114 -19 -194 -19
-320 0 -278 42 -519 140 -1030 419 -254 139 -349 182 -436 198 -49 10 -61 9
-83 -6 -78 -50 14 -193 329 -515 545 -556 1350 -1213 1684 -1374 141 -69 236
-61 427 33 236 116 467 336 622 594 169 279 252 596 252 954 0 400 -150 1185
-371 1950 l-51 173 27 54 c61 126 158 159 331 114 369 -96 726 -459 877 -895
58 -167 72 -243 71 -399 0 -125 -3 -149 -28 -225 -51 -157 -146 -365 -354
-781 -291 -578 -365 -756 -392 -933 -21 -142 7 -218 98 -263 49 -24 60 -25
140 -20 235 16 420 145 709 495 54 65 147 178 208 251 162 197 291 309 397
347 62 22 156 20 209 -3 24 -11 97 -52 162 -91 237 -143 398 -178 542 -118 56
24 143 113 212 218 86 133 102 166 83 178 -8 6 -19 8 -24 7 -5 -2 -37 -50 -71
-106 -123 -203 -207 -271 -338 -271 -113 0 -217 40 -431 169 -136 81 -205 100
-300 82 -160 -30 -287 -139 -596 -516 -274 -334 -397 -452 -551 -529 -171 -86
-338 -84 -384 4 -24 46 -19 163 10 263 46 160 109 302 362 811 339 683 393
824 393 1031 0 573 -469 1213 -987 1344 -180 46 -306 13 -371 -98 l-26 -44
-81 244 c-127 377 -220 620 -350 909 -24 54 -58 152 -74 217 -38 148 -44 166
-124 343 -36 80 -100 226 -142 325 -74 176 -76 181 -60 207 51 87 8 331 -86
490 -161 273 -503 610 -771 760 -117 66 -253 110 -355 114 -68 3 -89 8 -130
33 -26 16 -82 48 -123 72 -71 42 -76 47 -87 93 -7 27 -16 53 -21 58 -6 6 -65
16 -133 25 -68 8 -146 22 -174 31 -50 17 -50 17 -48 57 9 158 6 232 -11 270
-42 97 -126 138 -234 115 -111 -24 -181 -98 -224 -239 -25 -79 -48 -105 -121
-136 -47 -19 -47 -19 -81 154 -77 392 -202 534 -718 815 -112 61 -163 102
-137 110 8 2 160 18 339 36 646 62 788 90 798 158 7 46 -76 58 -288 42 -386
-28 -807 -108 -891 -169 -23 -17 -128 -45 -137 -36 -7 6 123 79 208 116 174
75 450 155 613 178 38 5 75 15 83 22 9 7 14 31 14 71 0 64 20 125 45 134 29
11 64 -6 168 -85 123 -92 154 -105 208 -91 45 12 43 5 39 155 l-2 110 37 -35
c49 -47 231 -319 240 -359 15 -71 -36 -102 -290 -176 -244 -71 -356 -122 -382
-175 -24 -49 21 -83 139 -101 118 -19 288 -3 379 35 14 6 17 -7 21 -106 6
-128 11 -146 44 -154 38 -10 45 -27 56 -136 15 -151 31 -163 170 -132 l26 6
-9 -43 c-6 -24 -26 -97 -45 -161 -20 -64 -34 -127 -32 -140 3 -25 27 -39 138
-84 162 -66 207 -34 237 164 16 113 46 188 175 442 90 178 155 330 177 415 18
65 13 193 -10 286 -72 291 -323 581 -646 744 -162 81 -309 106 -618 103 -110
-1 -218 -3 -240 -5z m630 -73 c116 -25 224 -73 352 -159 308 -207 508 -535
490 -805 -7 -110 -42 -200 -192 -504 -141 -284 -152 -313 -171 -439 -24 -159
-41 -173 -150 -125 -38 17 -81 34 -96 37 -16 4 -28 9 -28 12 0 2 19 66 41 141
23 75 42 159 43 186 1 68 -14 76 -100 53 -37 -10 -70 -15 -74 -10 -4 4 -12 51
-18 105 -12 107 -31 155 -66 164 -28 7 -36 48 -36 176 0 44 -5 88 -10 99 -13
23 -52 25 -70 4 -7 -8 -38 -23 -69 -32 -102 -30 -364 -18 -386 17 -7 11 94 64
175 92 30 10 125 39 210 64 85 25 177 58 204 72 81 44 104 106 70 187 -31 75
-229 354 -269 381 -13 8 -36 14 -52 12 -41 -5 -54 -50 -47 -165 l6 -93 -28 0
c-21 0 -62 25 -142 85 -62 46 -129 89 -149 94 -82 23 -142 -45 -143 -161 0
-52 -2 -58 -22 -62 -175 -31 -230 -43 -330 -72 -231 -66 -441 -156 -547 -236
l-54 -41 -34 18 c-80 43 -188 178 -248 309 -49 106 -59 149 -41 184 81 158
558 330 1128 407 204 28 307 34 533 30 177 -3 239 -7 320 -25z m-372 -771 c34
-2 -76 -26 -193 -44 -134 -19 -702 -77 -707 -71 -11 11 269 63 491 91 142 18
353 34 374 29 8 -2 23 -4 35 -5z m-1036 -266 c15 -11 87 -53 158 -93 173 -96
243 -140 350 -220 183 -138 267 -292 319 -585 30 -166 59 -192 160 -141 l47
24 -6 -42 c-4 -22 -18 -75 -31 -116 -13 -42 -24 -100 -24 -132 0 -50 4 -62 29
-90 27 -30 34 -33 88 -32 78 0 125 27 203 111 66 72 150 227 169 313 37 164
-21 278 -146 288 -51 4 -54 3 -90 -34 -21 -22 -53 -57 -70 -79 -29 -35 -31
-36 -23 -12 38 109 113 167 217 167 85 0 127 -42 143 -143 7 -47 0 -150 -16
-211 -14 -59 70 -97 266 -119 l114 -13 8 -39 c12 -53 43 -83 148 -141 50 -27
90 -51 90 -54 0 -4 -16 -12 -36 -19 -50 -18 -138 -108 -222 -228 -55 -78 -156
-187 -419 -453 -342 -345 -434 -430 -467 -430 -32 0 -65 32 -145 138 -43 59
-114 146 -157 193 -85 92 -194 231 -194 245 0 5 30 20 68 33 157 54 417 174
426 196 3 8 -2 19 -10 26 -11 9 -57 -2 -231 -55 -257 -80 -343 -116 -343 -145
0 -31 -88 -46 -275 -46 -167 0 -273 14 -361 46 -100 37 -124 99 -83 213 l23
65 -22 30 -22 30 30 34 c38 44 39 81 1 138 -28 41 -29 47 -19 95 15 76 -3 111
-81 152 -68 37 -84 58 -75 99 3 16 39 96 80 178 67 135 76 159 85 238 7 61 8
118 1 182 -8 73 -8 107 4 161 22 110 88 306 104 315 8 4 51 14 95 21 l80 14
17 -26 c9 -15 29 -36 45 -47z m-5042 -169 c305 -65 675 -154 792 -190 67 -20
84 -29 87 -47 5 -24 17 -418 41 -1337 28 -1095 35 -1434 35 -1752 l0 -320 -47
-61 c-26 -34 -173 -221 -328 -415 -154 -195 -289 -366 -300 -381 -11 -14 -81
-103 -155 -196 -75 -94 -149 -187 -164 -207 l-28 -38 4 -197 c4 -216 16 -273
57 -273 28 0 37 11 281 340 120 162 262 354 315 425 52 72 134 182 180 245
186 253 161 207 -54 -100 -383 -548 -788 -1106 -796 -1098 -9 8 -49 932 -115
2623 -40 1038 -100 2799 -100 2967 0 67 2 76 18 72 9 -2 134 -29 277 -60z
m6409 -615 c45 -35 59 -75 53 -146 -15 -159 -147 -376 -262 -429 -61 -29 -89
-30 -115 -4 -27 27 -26 80 4 177 14 43 30 110 37 148 11 65 16 74 69 130 31
33 71 79 89 103 27 34 39 42 65 42 19 0 45 -9 60 -21z m1011 -666 c182 -45
412 -200 646 -435 130 -131 243 -274 312 -393 68 -117 119 -317 102 -395 -6
-29 -25 -42 -25 -17 0 6 -42 95 -93 197 -254 504 -453 744 -689 832 -69 25
-102 32 -193 36 -100 4 -117 2 -188 -22 -184 -62 -308 -182 -544 -526 -114
-166 -209 -269 -312 -340 -100 -67 -241 -129 -359 -157 -127 -30 -136 -34
-140 -61 -3 -16 9 -30 51 -56 31 -20 71 -43 91 -53 l36 -17 0 -310 c1 -887 35
-1591 80 -1676 14 -27 46 -25 62 3 19 32 23 661 8 1230 -16 618 -22 722 -45
747 -18 20 -17 20 71 20 49 0 129 7 177 14 124 20 182 55 405 243 351 297 622
381 914 283 161 -54 283 -138 491 -337 73 -71 140 -132 150 -138 9 -5 74 -140
143 -300 179 -411 186 -426 182 -431 -2 -2 -21 27 -42 64 -94 164 -215 313
-325 400 -422 334 -996 298 -1294 -80 -233 -296 -256 -681 -81 -1383 56 -224
108 -396 240 -796 68 -207 124 -381 124 -388 0 -8 -33 -10 -112 -9 -62 2 -243
1 -403 -1 -253 -3 -296 -2 -335 13 -65 24 -150 78 -150 95 0 8 -30 114 -67
235 -36 122 -78 275 -93 341 -25 112 -28 120 -50 120 -21 0 -26 -7 -35 -50
-11 -49 -11 -49 -18 65 -12 216 -57 589 -87 728 -11 49 -27 76 -49 84 -15 5
-84 528 -111 843 -13 153 -13 439 0 486 14 51 50 79 122 96 199 46 482 293
823 718 204 254 312 366 388 399 57 26 77 48 77 85 0 19 4 21 43 15 23 -3 69
-13 102 -21z m164 -239 c154 -38 272 -122 404 -289 118 -148 291 -443 382
-650 l27 -60 -119 115 c-186 181 -310 264 -488 326 -73 26 -93 28 -220 28
-162 1 -220 -12 -360 -78 -139 -66 -193 -104 -471 -330 -141 -114 -200 -142
-329 -157 -55 -6 -135 -8 -178 -4 -54 5 -82 4 -92 -5 -11 -9 -24 -6 -65 16
-53 29 -63 44 -29 44 32 0 219 65 291 101 175 88 309 215 458 433 169 249 272
365 395 445 43 28 80 51 84 51 3 1 29 7 56 15 68 19 175 18 254 -1z m387
-1209 c293 -74 497 -242 689 -565 121 -205 154 -281 180 -414 86 -446 159
-1066 186 -1572 15 -292 7 -867 -15 -1024 -54 -381 -162 -572 -388 -686 -220
-111 -528 -119 -908 -24 -213 53 -235 62 -995 385 -714 303 -1324 545 -1515
602 -50 14 -131 28 -198 34 -62 4 -121 13 -131 19 -11 5 -27 30 -36 55 -28 73
-17 133 49 274 64 134 77 191 53 238 -16 30 -16 30 19 46 21 11 60 17 100 17
88 0 307 -20 317 -29 4 -4 -1 -32 -11 -62 -33 -94 -62 -331 -47 -378 11 -35
44 -26 62 17 27 65 95 345 98 406 2 53 5 60 30 74 60 31 179 3 534 -123 248
-88 293 -100 322 -85 16 9 31 6 72 -14 111 -54 135 -56 559 -49 428 7 408 10
408 -53 0 -60 -41 -165 -150 -379 -61 -119 -110 -224 -110 -234 0 -32 26 -45
60 -31 33 14 165 148 280 285 l74 87 80 -84 c45 -47 116 -121 158 -166 46 -49
94 -90 118 -101 76 -34 106 -3 69 71 -19 39 -35 62 -118 178 -29 40 -31 42
104 -72 175 -147 305 -215 360 -190 61 28 10 116 -157 277 -176 170 -421 362
-535 419 -28 14 -84 31 -125 37 -40 7 -74 12 -74 13 -7 5 -276 835 -318 984
-101 352 -159 650 -172 893 -17 288 60 532 225 711 126 137 281 213 496 242
60 8 212 -6 301 -29z m-1782 -47 c18 -162 47 -1751 32 -1737 -31 29 -77 1789
-47 1789 5 0 12 -24 15 -52z m-6683 -994 c-21 -76 -80 -278 -130 -449 -116
-391 -171 -603 -171 -660 0 -39 6 -52 41 -90 47 -50 148 -117 254 -167 41 -19
63 -34 53 -36 -30 -6 -181 25 -242 49 -117 47 -130 95 -131 489 0 162 -2 301
-3 308 -3 20 -31 14 -47 -12 -34 -51 -159 -608 -205 -911 -26 -175 -28 -266
-7 -299 37 -56 189 -103 429 -132 78 -10 148 -22 153 -27 11 -10 -340 -1 -493
13 -121 11 -147 26 -192 115 -32 62 -35 75 -34 149 1 69 13 124 82 373 234
839 637 2213 670 2283 4 8 8 -181 10 -421 l2 -435 -39 -140z m6429 -261 c0 -7
-38 -35 -85 -62 -117 -69 -463 -247 -447 -230 7 8 126 84 265 170 242 150 266
161 267 122z m-1692 -583 c193 -39 370 -104 453 -164 41 -31 49 -43 78 -127
18 -52 48 -122 66 -157 l33 -63 -51 -29 c-90 -52 -149 -65 -247 -52 -120 15
-133 21 -155 79 -23 61 -80 151 -114 181 -73 64 -215 90 -325 58 -80 -24 -127
-74 -201 -216 -59 -113 -60 -115 -95 -115 -34 0 -35 1 -34 41 1 54 77 242 120
296 38 48 42 69 18 89 -15 12 -20 10 -43 -20 -14 -19 -59 -70 -98 -113 -80
-87 -93 -108 -116 -188 -9 -30 -23 -64 -30 -75 -14 -18 -15 -17 -27 20 -7 22
-14 93 -17 158 -7 147 5 185 81 254 71 65 138 96 286 131 155 38 277 41 418
12z m-60 -325 c29 -9 68 -30 87 -46 40 -35 92 -122 101 -169 6 -29 5 -32 -13
-26 -42 13 -190 36 -235 36 -45 0 -245 -69 -309 -107 -15 -9 -35 -13 -44 -9
-16 6 -16 8 -3 24 9 9 39 63 68 120 29 56 65 116 82 132 54 55 168 74 266 45z
m1966 -240 c27 -91 70 -167 133 -236 l58 -62 -40 7 c-22 4 -130 41 -240 81
-250 91 -371 126 -457 133 -83 6 -109 -1 -152 -38 -34 -30 -35 -31 -98 -20
-35 6 -131 13 -215 17 -155 6 -193 1 -235 -34 -14 -13 -28 -10 -111 23 -53 21
-94 41 -92 45 3 4 17 10 32 14 16 3 63 24 106 46 52 26 85 37 101 33 22 -5
390 49 696 102 280 48 434 90 466 126 19 20 19 19 25 -78 3 -55 14 -126 23
-159z m110 -25 c19 -58 36 -118 40 -135 l7 -30 -21 25 c-62 77 -111 235 -109
358 l0 57 25 -85 c14 -47 40 -132 58 -190z m-3080 173 c4 -4 -28 -15 -71 -25
-115 -27 -118 -31 -131 -135 -35 -265 -47 -642 -24 -697 15 -35 14 -36 -17
-25 l-24 9 7 158 c12 270 44 598 67 685 l10 37 88 0 c48 0 91 -3 95 -7z m6311
-528 c106 -418 193 -875 230 -1207 59 -531 -65 -993 -367 -1369 -201 -250
-490 -440 -693 -456 -55 -4 -67 -1 -142 36 -166 81 -416 255 -718 500 -637
516 -1249 1119 -1300 1280 -7 24 -7 24 50 18 64 -6 209 -73 446 -204 245 -136
294 -161 431 -224 576 -264 976 -263 1383 1 92 60 243 208 299 293 138 210
209 449 241 808 19 216 19 357 0 614 -16 219 -19 354 -8 406 6 30 11 19 45
-101 21 -74 67 -252 103 -395z m-5155 331 c208 -44 518 -145 508 -165 -2 -3
-18 -34 -36 -69 -41 -80 -91 -231 -98 -303 -5 -39 0 -79 15 -139 11 -46 21
-87 21 -92 0 -16 -78 -7 -245 27 -356 75 -414 83 -734 105 -321 21 -371 30
-386 68 -3 8 0 21 7 28 7 7 119 29 248 48 288 43 334 53 362 76 19 15 21 22
12 37 -33 55 -174 54 -439 -2 -173 -37 -260 -42 -260 -16 0 21 122 66 285 105
178 43 307 66 340 60 32 -7 63 16 54 39 -4 13 -18 17 -51 17 -25 0 -103 7
-172 16 -117 15 -132 15 -191 0 -35 -9 -107 -37 -159 -62 -53 -25 -91 -41 -86
-36 6 5 57 45 115 88 l105 79 137 3 c100 3 159 -1 219 -13 73 -15 83 -15 97
-2 25 26 7 45 -50 54 l-53 8 95 38 c111 43 147 44 340 3z m-640 -206 c8 -1
-46 -16 -119 -35 -74 -19 -136 -33 -138 -31 -6 5 129 59 166 67 20 4 45 5 56
3 11 -2 27 -4 35 -4z m1207 -37 c-3 -19 -31 -89 -62 -154 -31 -66 -59 -136
-62 -155 -3 -19 -10 -37 -16 -41 -16 -9 0 87 30 180 49 158 127 278 110 170z
m2697 -147 c122 -51 550 -404 654 -539 47 -61 49 -67 24 -67 -44 0 -201 113
-397 284 -118 104 -156 124 -169 90 -9 -22 20 -70 158 -261 25 -34 50 -72 56
-83 31 -58 -68 36 -224 212 -71 81 -119 118 -153 118 -12 0 -36 -19 -59 -47
-40 -50 -162 -190 -226 -258 -21 -22 -38 -35 -38 -29 0 5 33 73 74 151 118
222 156 323 156 414 l0 46 56 -9 c31 -5 70 -15 88 -22z m-3709 -6 c-22 -10
-435 -73 -441 -68 -3 4 300 66 351 72 17 1 48 3 70 4 31 0 36 -1 20 -8z"/>
<path d="M7516 3768 c-145 -371 -196 -502 -196 -510 0 -5 19 -8 43 -8 l42 0
52 133 c29 72 95 242 147 376 53 134 96 245 96 247 0 2 -20 4 -44 4 l-44 0
-96 -242z" fill="#ffffff"/>
<path d="M7940 3764 c0 -4 19 -30 43 -58 23 -28 48 -58 55 -67 11 -15 5 -24
-45 -72 -32 -30 -69 -64 -83 -76 l-25 -20 60 0 60 -1 84 78 85 78 -60 72 -59
72 -57 0 c-32 0 -58 -3 -58 -6z" fill="#ffffff" />
<path d="M6913 3678 c-45 -40 -81 -77 -79 -81 1 -5 26 -39 56 -77 l55 -69 58
-1 c31 0 57 3 57 6 0 3 -25 36 -55 72 -30 37 -54 70 -53 74 2 3 38 38 81 77
l77 71 -58 0 c-57 0 -58 0 -139 -72z" fill="#ffffff" />
<g fill="#ffffff">
<path d="M8631 3059 c-131 -26 -224 -141 -225 -280 -1 -56 3 -72 27 -108 36
-55 92 -81 172 -81 131 0 256 105 266 225 l4 40 -125 -4 c-69 -2 -125 -4 -126
-5 -1 0 -4 -16 -7 -33 l-6 -33 79 0 c52 0 80 -4 80 -11 0 -24 -76 -87 -114
-94 -55 -11 -113 9 -137 48 -29 45 -20 126 18 181 54 77 166 98 215 40 18 -20
31 -24 75 -24 52 0 54 1 48 23 -28 89 -131 139 -244 116z"/>
<path d="M7976 3041 c-5 -7 -76 -438 -76 -459 0 -4 22 -6 48 -4 l48 4 23 151
c13 84 24 154 26 156 2 2 39 -67 82 -153 l78 -156 47 0 c45 0 47 1 53 33 11
65 65 419 65 428 0 5 -20 9 -45 9 -52 0 -46 15 -75 -175 -12 -71 -22 -130 -23
-131 -1 -2 -38 67 -82 152 l-80 154 -42 0 c-23 0 -44 -4 -47 -9z"/>
<path d="M7735 3018 c-9 -42 -65 -408 -65 -428 0 -17 7 -20 45 -20 25 0 45 2
45 3 0 2 16 104 35 226 19 122 35 226 35 231 0 6 -20 10 -45 10 -38 0 -45 -3
-50 -22z"/>
<path d="M6870 3021 c-77 -25 -131 -71 -166 -141 -33 -66 -39 -175 -11 -226
55 -104 196 -134 318 -68 154 84 187 326 56 412 -31 21 -54 27 -106 29 -36 1
-77 -1 -91 -6z m151 -110 c25 -26 29 -37 29 -86 0 -70 -27 -125 -77 -160 -41
-27 -104 -33 -146 -14 -58 26 -74 121 -34 199 31 62 76 90 144 90 47 0 59 -4
84 -29z"/>
<path d="M7256 3018 c-8 -24 -66 -413 -66 -437 l0 -24 113 5 c134 6 197 29
255 92 55 60 75 119 70 205 -4 84 -23 115 -88 149 -39 19 -60 22 -162 22 -86
0 -120 -3 -122 -12z m237 -88 c52 -41 58 -124 14 -203 -30 -53 -75 -78 -154
-85 l-65 -5 6 29 c3 16 13 74 21 129 26 171 17 155 89 155 48 0 69 -5 89 -20z"/>
<path d="M6343 3003 c-105 -37 -186 -153 -186 -268 -1 -151 130 -232 289 -178
48 16 154 108 154 132 0 6 -21 11 -48 11 -37 0 -54 -5 -68 -21 -30 -33 -69
-49 -118 -49 -86 0 -132 73 -107 167 22 82 86 133 166 133 39 0 52 -5 75 -30
24 -26 35 -30 80 -30 43 0 51 3 46 16 -3 9 -6 19 -6 24 0 19 -57 74 -95 91
-48 22 -124 23 -182 2z"/>
</g>
</g>
</svg>
